<svg xmlns="http://www.w3.org/2000/svg" viewBox="0 0 1440 320"><path fill="#9D00FF" fill-opacity="1" d="M0,224L11.4,186.7C22.9,149,46,75,69,69.3C91.4,64,114,128,137,138.7C160,149,183,107,206,101.3C228.6,96,251,128,274,122.7C297.1,117,320,75,343,69.3C365.7,64,389,96,411,106.7C434.3,117,457,107,480,128C502.9,149,526,203,549,213.3C571.4,224,594,192,617,197.3C640,203,663,245,686,245.3C708.6,245,731,203,754,170.7C777.1,139,800,117,823,122.7C845.7,128,869,160,891,149.3C914.3,139,937,85,960,101.3C982.9,117,1006,203,1029,218.7C1051.4,235,1074,181,1097,181.3C1120,181,1143,235,1166,256C1188.6,277,1211,267,1234,261.3C1257.1,256,1280,256,1303,218.7C1325.7,181,1349,107,1371,101.3C1394.3,96,1417,160,1429,192L1440,224L1440,320L1428.6,320C1417.1,320,1394,320,1371,320C1348.6,320,1326,320,1303,320C1280,320,1257,320,1234,320C1211.4,320,1189,320,1166,320C1142.9,320,1120,320,1097,320C1074.3,320,1051,320,1029,320C1005.7,320,983,320,960,320C937.1,320,914,320,891,320C868.6,320,846,320,823,320C800,320,777,320,754,320C731.4,320,709,320,686,320C662.9,320,640,320,617,320C594.3,320,571,320,549,320C525.7,320,503,320,480,320C457.1,320,434,320,411,320C388.6,320,366,320,343,320C320,320,297,320,274,320C251.4,320,229,320,206,320C182.9,320,160,320,137,320C114.3,320,91,320,69,320C45.7,320,23,320,11,320L0,320Z"></path></svg>